# xmcd
#
# Track frame offsets:
#	150
#	16682
#	33849
#	47673
#	61034
#	79351
#	96043
#	118467
#	138082
#	152144
#	167473
#	189855
#	206465
#	223763
#	243765
#	258336
#
# Disc length: 3673 seconds
#
# Revision: 0
# Processed by: cddbd v1.5.1PL2 Copyright (c) Steve Scherf et al.
# Submitted via: EasyCDDAExtractor 8.2.3.1
#
DISCID=c80e5710
DTITLE=Final Approach - Many Faces
DYEAR=1900
DGENRE=Country
TTITLE0=Midnight Lover
TTITLE1=Heartaches
TTITLE2=So You've Fallen Down
TTITLE3=Spring
TTITLE4=Connecticut Ynkees
TTITLE5=The Visit
TTITLE6=Way Over The Line
TTITLE7=Island Spirits
TTITLE8=Grampy
TTITLE9=When Margeaux Takes Me Dncing
TTITLE10=Dunbar Avenue
TTITLE11=Birmingham
TTITLE12=Last Tomato
TTITLE13=Comin Up On Washington
TTITLE14=Morning On Signal Hill
TTITLE15=The Visit (Reprise)
EXTD=
EXTT0=
EXTT1=
EXTT2=
EXTT3=
EXTT4=
EXTT5=
EXTT6=
EXTT7=
EXTT8=
EXTT9=
EXTT10=
EXTT11=
EXTT12=
EXTT13=
EXTT14=
EXTT15=
PLAYORDER=
